<svg width="285" height="555" viewBox="0 0 285 555" fill="none" xmlns="http://www.w3.org/2000/svg">
<path d="M153.06 96.6906C152.51 88.2906 151.97 80.1906 151.41 71.6906C145.61 73.4806 140.3 75.3506 134.87 76.7406C113.72 82.1606 92.3996 81.8206 71.0696 77.9506C68.1496 77.4206 65.2796 76.1706 62.6496 74.7606C61.4396 74.1106 59.9096 72.0206 60.1896 71.0806C60.5796 69.7606 62.4596 68.1006 63.8196 67.9906C67.1396 67.7006 70.5796 67.9306 73.8896 68.4606C85.9396 70.4106 97.8796 73.3106 109.99 74.4606C123.18 75.7106 136.04 72.3506 148.68 68.6106C151.16 67.8806 150.87 66.2706 150.58 64.4906C148.77 53.5406 146.92 42.6006 145.17 31.6506C144.67 28.5406 144.31 25.3906 144.25 22.2506C144.23 21.0906 145 19.2706 145.88 18.9106C146.82 18.5206 148.67 19.1406 149.51 19.9506C153.54 23.8306 156.17 28.5906 156.37 34.2606C156.68 43.2106 156.67 52.1706 156.8 61.1206C156.82 62.3506 156.8 63.5806 156.8 65.7406C161.73 63.1506 166.14 61.0606 170.32 58.6006C187.71 48.3606 205.02 37.9906 222.38 27.7106C233.99 20.8406 244.21 12.3306 253 2.08063C253.77 1.18063 255.13 0.780625 256.22 0.140625C256.61 1.42062 257.5 2.80063 257.25 3.94063C256.94 5.38063 255.96 6.93062 254.82 7.90062C250.8 11.3406 246.49 14.4506 242.5 17.9306C241.31 18.9606 240.28 20.7406 240.11 22.2706C239.46 28.1606 238.85 34.0806 238.83 40.0006C238.73 73.3106 238.77 106.621 238.87 139.931C238.89 146.111 237.59 153.331 247.33 153.731C246.48 157.601 243.65 157.861 241.14 158.271C220.88 161.631 202.57 169.691 185.68 181.181C182.27 183.501 179.26 186.461 175.69 188.451C174.01 189.391 171.39 189.011 169.31 188.621C168.8 188.521 168.06 185.421 168.64 184.711C170.03 183.031 172.13 180.891 174 180.821C180.8 180.581 185.28 177.711 187.4 171.281C187.82 170.001 188.13 168.511 187.89 167.221C184.32 147.671 173.46 133.001 157.03 121.271C156.92 122.661 156.78 123.451 156.8 124.241C157.56 154.261 158.38 184.271 159.02 214.291C159.07 216.831 160.45 217.771 162.08 218.951C191.15 239.871 220.29 260.701 249.23 281.811C259.68 289.431 268.74 298.581 275.7 309.621C287.84 328.861 287.69 348.331 276.79 368.011C270.51 379.351 262.69 389.511 253.45 398.581C247.34 404.581 241.18 410.541 234.82 416.741C237.86 422.091 241.21 427.541 244.14 433.211C257.57 459.181 263.6 486.591 260.05 515.871C257.74 534.951 246.55 546.211 228.82 551.711C220.19 554.391 211.3 555.221 202.25 554.311C195.02 553.581 188.36 550.991 182.82 546.591C179.66 544.081 177.05 540.131 175.75 536.301C174.74 533.341 175.1 528.921 176.69 526.251C180.88 519.221 188.14 516.351 195.94 514.971C196.8 514.821 197.77 515.341 199.36 515.701C198.37 516.791 197.91 517.451 197.31 517.931C190.52 523.301 187.85 531.801 190.69 539.121C193.79 547.131 200.92 552.421 208.72 551.211C212.72 550.591 216.93 548.511 220.1 545.931C230.2 537.721 236.37 526.601 240.11 514.411C249.7 483.121 249.26 452.511 232.26 423.431C231.63 422.351 230.96 421.301 230.1 419.901C226.15 422.371 222.39 424.811 218.55 427.121C200.76 437.841 181.93 446.311 162.24 452.851C159.79 453.661 158.91 454.701 158.95 457.321C159.11 467.541 159.02 477.761 159.01 487.981C159.01 488.991 159.2 490.071 158.9 490.981C158.67 491.661 157.77 492.561 157.18 492.551C156.61 492.551 155.74 491.591 155.55 490.901C155.26 489.841 155.41 488.651 155.41 487.521C155.41 476.941 155.41 466.361 155.41 455.381C148.28 457.231 141.58 459.361 134.72 460.691C107.88 465.911 81.0696 466.981 54.7496 458.031C39.3196 452.791 25.8096 444.301 15.3596 431.561C-6.44039 405.011 -1.94039 371.211 16.3796 347.751C25.4896 336.091 37.0796 327.301 51.4996 324.041C66.2496 320.711 81.0096 316.101 96.5796 318.081C113.2 320.191 129.34 324.011 144.48 331.341C146.96 332.541 148.01 331.961 149.75 330.071C154.11 325.361 156.28 320.211 155.53 313.691C155.07 309.711 155.26 305.611 155.51 301.591C155.67 298.961 154.72 297.661 152.27 296.961C138.1 292.921 123.98 288.681 109.78 284.761C90.4196 279.411 71.9096 272.291 56.2296 259.301C48.2296 252.671 41.6296 244.961 39.8396 234.201C38.7096 227.371 40.0196 220.891 42.9196 214.711C43.3296 213.841 44.4996 212.821 45.3196 212.811C46.1296 212.811 47.3496 213.831 47.7096 214.691C60.1796 244.631 85.3396 260.561 113.09 273.291C126.24 279.331 139.96 284.131 153.43 289.481C153.86 289.651 154.34 289.721 155.08 289.251C147.27 284.271 139.58 279.071 131.61 274.341C107.91 260.261 86.3896 243.561 68.2096 222.741C61.8596 215.461 56.2496 207.651 54.4696 197.871C51.9296 183.931 54.9896 171.331 64.2096 160.421C66.2396 158.021 68.6496 155.931 70.6496 153.501C74.9696 148.271 79.6696 143.251 83.2596 137.551C98.6296 113.131 121.11 100.611 149.21 97.1006C150.21 96.9806 151.21 96.8806 152.99 96.6806L153.06 96.6906ZM142.24 336.371C135.71 334.311 128.56 331.341 121.12 329.851C104.24 326.461 88.3196 328.891 75.1396 340.931C51.6896 362.361 53.6896 400.591 79.3796 420.641C96.8296 434.271 117.27 440.211 139 442.151C144.32 442.621 149.72 442.221 155.27 442.221C155.34 440.821 155.45 439.711 155.45 438.601C155.46 428.641 155.2 418.661 155.55 408.711C155.75 403.031 154.33 398.391 151.09 393.661C144.12 383.461 135.55 375.531 123.89 371.131C122.36 370.551 120.92 369.741 119.47 368.981C116.94 367.651 116.3 365.881 118.28 363.541C120.81 360.561 123.27 357.531 125.86 354.601C131.12 348.671 136.44 342.801 142.22 336.371H142.24ZM154.96 213.861C155.28 213.061 155.46 212.841 155.45 212.611C154.66 181.981 153.88 151.361 152.98 120.731C152.95 119.661 151.85 118.201 150.85 117.641C143.48 113.541 135.56 111.091 127.09 110.811C114.04 110.391 101.67 118.301 98.0796 129.761C95.1896 139.011 95.1796 148.441 98.8096 157.571C103.66 169.781 111.98 179.531 121.27 188.571C131.34 198.371 142.89 206.171 154.96 213.851V213.861ZM159.09 299.631C159.09 308.241 159.27 316.181 159.01 324.101C158.89 327.701 159.98 330.431 162.52 332.821C168.4 338.341 174.36 343.791 180.05 349.511C183.4 352.881 187.36 356.271 189.08 360.461C191.01 365.151 194.15 368.391 197.31 371.871C199.68 374.481 202.18 376.981 204.49 379.651C212.8 389.271 221.06 398.931 229.38 408.621C229.56 408.481 229.94 408.311 230.14 408.021C240.76 392.261 242.51 366.851 229.54 349.351C211.59 325.131 186.51 311.591 159.09 299.631ZM159.08 442.741C166.68 441.511 173.77 440.681 180.72 439.191C196.93 435.711 211.44 428.861 223.25 416.861C225.53 414.541 226.3 412.781 224 409.911C217.73 402.051 212 393.741 205.52 386.051C200.61 380.231 194.88 375.101 189.58 369.731C185.53 373.701 181.88 377.351 178.16 380.921C173.62 385.281 168.94 389.501 164.47 393.931C160.61 397.741 158.95 402.491 159.02 407.941C159.13 416.881 159.06 425.831 159.07 434.781C159.07 437.141 159.07 439.501 159.07 442.751L159.08 442.741ZM187.36 100.151C187.36 90.8206 187.38 81.0306 187.33 71.2306C187.33 70.3806 186.96 69.5106 186.68 68.6806C184.17 60.9806 178.74 58.4906 171.33 61.8106C167.08 63.7106 162.88 65.7706 158.82 68.0406C157.8 68.6106 156.84 70.2606 156.79 71.4506C156.5 78.8806 156.47 86.3206 156.39 93.7506C156.39 94.5806 156.62 95.4006 156.65 95.6106C167.22 97.1706 177.38 98.6706 187.35 100.141L187.36 100.151Z" fill="white"/>
</svg>
